<mxfile host="app.diagrams.net" modified="2021-06-25T07:04:49.612Z" agent="5.0 (Macintosh; Intel Mac OS X 10_13_6) AppleWebKit/605.1.15 (KHTML, like Gecko) Version/13.1.2 Safari/605.1.15" etag="nQMVaKeL7pqJYhzV5MB7" version="14.8.0" type="github">
  <diagram id="N6EXAPugcFNJGryoLqMv" name="Page-1">
    <mxGraphModel dx="780" dy="846" grid="1" gridSize="10" guides="1" tooltips="1" connect="1" arrows="1" fold="1" page="1" pageScale="1" pageWidth="827" pageHeight="1169" math="0" shadow="0">
      <root>
        <mxCell id="0" />
        <mxCell id="1" parent="0" />
        <mxCell id="xK8btJ-nqeLvk-TRccek-5" value="" style="shape=singleArrow;direction=north;whiteSpace=wrap;html=1;rotation=-180;" vertex="1" parent="1">
          <mxGeometry x="340" y="190" width="20" height="140" as="geometry" />
        </mxCell>
        <mxCell id="xK8btJ-nqeLvk-TRccek-9" value="" style="swimlane;startSize=0;" vertex="1" parent="1">
          <mxGeometry x="240" y="170" width="70" height="200" as="geometry" />
        </mxCell>
        <mxCell id="xK8btJ-nqeLvk-TRccek-11" value="高位" style="ellipse;shape=cloud;whiteSpace=wrap;html=1;" vertex="1" parent="1">
          <mxGeometry x="360" y="320" width="80" height="40" as="geometry" />
        </mxCell>
        <mxCell id="xK8btJ-nqeLvk-TRccek-12" value="低位" style="ellipse;shape=cloud;whiteSpace=wrap;html=1;" vertex="1" parent="1">
          <mxGeometry x="360" y="180" width="70" height="30" as="geometry" />
        </mxCell>
      </root>
    </mxGraphModel>
  </diagram>
</mxfile>
